<svg width="1770" height="18" viewBox="0 0 1770 18" fill="none" xmlns="http://www.w3.org/2000/svg">
<g clip-path="url(#clip0_7677_422)">
<path fill-rule="evenodd" clip-rule="evenodd" d="M8 17C12.4183 17 16 13.4183 16 9C16 4.58172 12.4183 1 8 1C3.58172 1 0 4.58172 0 9C0 13.4183 3.58172 17 8 17ZM10.4078 10.2807L12.5236 12.3965C12.6194 12.5036 12.6705 12.6433 12.6664 12.7869C12.6624 12.9305 12.6036 13.0671 12.502 13.1687C12.4004 13.2703 12.2638 13.3291 12.1202 13.3331C11.9766 13.3371 11.8369 13.286 11.7298 13.1903L9.614 11.0745C8.93587 11.5839 8.11044 11.8588 7.26229 11.8579C5.09588 11.8579 3.33333 10.0954 3.33333 7.92896C3.33333 5.76255 5.09588 4 7.26229 4C9.42871 4 11.1913 5.76255 11.1913 7.92896C11.1922 8.7771 10.9172 9.60253 10.4078 10.2807ZM4.92886 6.36981C4.62049 6.83132 4.45589 7.37391 4.45589 7.92896C4.45679 8.67299 4.75275 9.38629 5.27885 9.9124C5.80496 10.4385 6.51826 10.7345 7.26229 10.7354C7.81735 10.7354 8.35994 10.5708 8.82145 10.2624C9.28296 9.95402 9.64266 9.51573 9.85507 9.00292C10.0675 8.49012 10.1231 7.92585 10.0148 7.38146C9.90648 6.83707 9.6392 6.33702 9.24672 5.94454C8.85424 5.55205 8.35418 5.28477 7.80979 5.17648C7.26541 5.0682 6.70113 5.12377 6.18833 5.33618C5.67553 5.54859 5.23723 5.9083 4.92886 6.36981Z" fill="#616D8D"/>
</g>
<path d="M27.302 4.228H34.4V14H33.224V5.264H28.478V14H27.302V4.228ZM39.627 14.168C39.1417 14.168 38.6984 14.0793 38.297 13.902C37.8957 13.7247 37.5504 13.4727 37.261 13.146C36.981 12.81 36.7617 12.4133 36.603 11.956C36.4444 11.4893 36.365 10.9667 36.365 10.388C36.365 9.81867 36.4444 9.30067 36.603 8.834C36.7617 8.36733 36.981 7.97067 37.261 7.644C37.5504 7.308 37.8957 7.05133 38.297 6.874C38.6984 6.69667 39.1417 6.608 39.627 6.608C40.1124 6.608 40.551 6.69667 40.943 6.874C41.3444 7.05133 41.6897 7.308 41.979 7.644C42.2684 7.97067 42.4924 8.36733 42.651 8.834C42.8097 9.30067 42.889 9.81867 42.889 10.388C42.889 10.9667 42.8097 11.4893 42.651 11.956C42.4924 12.4133 42.2684 12.81 41.979 13.146C41.6897 13.4727 41.3444 13.7247 40.943 13.902C40.551 14.0793 40.1124 14.168 39.627 14.168ZM39.627 13.174C40.2337 13.174 40.7284 12.9873 41.111 12.614C41.4937 12.2407 41.685 11.6713 41.685 10.906V9.87C41.685 9.10467 41.4937 8.53533 41.111 8.162C40.7284 7.78867 40.2337 7.602 39.627 7.602C39.0204 7.602 38.5257 7.78867 38.143 8.162C37.7604 8.53533 37.569 9.10467 37.569 9.87V10.906C37.569 11.6713 37.7604 12.2407 38.143 12.614C38.5257 12.9873 39.0204 13.174 39.627 13.174ZM44.731 6.776H45.823V10.78L45.711 12.516H45.767L46.663 10.976L49.547 6.776H50.583V14H49.491V9.996L49.603 8.26H49.547L48.651 9.8L45.767 14H44.731V6.776ZM55.6495 14.168C55.1455 14.168 54.6928 14.0793 54.2915 13.902C53.8902 13.7247 53.5495 13.4727 53.2695 13.146C52.9988 12.8193 52.7888 12.4227 52.6395 11.956C52.4995 11.4893 52.4295 10.9667 52.4295 10.388C52.4295 9.80933 52.4995 9.28667 52.6395 8.82C52.7888 8.35333 52.9988 7.95667 53.2695 7.63C53.5495 7.30333 53.8902 7.05133 54.2915 6.874C54.6928 6.69667 55.1455 6.608 55.6495 6.608C56.3682 6.608 56.9422 6.76667 57.3715 7.084C57.8102 7.392 58.1368 7.798 58.3515 8.302L57.4135 8.778C57.2828 8.40467 57.0682 8.11533 56.7695 7.91C56.4708 7.70467 56.0975 7.602 55.6495 7.602C55.3135 7.602 55.0195 7.658 54.7675 7.77C54.5155 7.87267 54.3055 8.022 54.1375 8.218C53.9695 8.40467 53.8435 8.63333 53.7595 8.904C53.6755 9.16533 53.6335 9.45467 53.6335 9.772V11.004C53.6335 11.6387 53.8015 12.1613 54.1375 12.572C54.4828 12.9733 54.9868 13.174 55.6495 13.174C56.5548 13.174 57.2082 12.754 57.6095 11.914L58.4215 12.46C58.1882 12.9827 57.8382 13.398 57.3715 13.706C56.9142 14.014 56.3402 14.168 55.6495 14.168ZM60.0025 6.776H61.1225V9.8H62.5645L63.9645 7.588C64.0672 7.42 64.1652 7.28467 64.2585 7.182C64.3518 7.07 64.4452 6.986 64.5385 6.93C64.6318 6.874 64.7298 6.83667 64.8325 6.818C64.9352 6.79 65.0518 6.776 65.1825 6.776H65.8405V7.756H64.9725L63.8385 9.548C63.7638 9.66933 63.6985 9.76733 63.6425 9.842C63.5865 9.91667 63.5305 9.982 63.4745 10.038C63.4185 10.0847 63.3578 10.1267 63.2925 10.164C63.2272 10.192 63.1478 10.22 63.0545 10.248V10.304C63.2505 10.332 63.4185 10.3973 63.5585 10.5C63.7078 10.5933 63.8618 10.78 64.0205 11.06L65.1265 13.02H65.9525V14H65.1405C64.8978 14 64.6738 13.9393 64.4685 13.818C64.2725 13.6873 64.0812 13.454 63.8945 13.118L62.5645 10.752H61.1225V14H60.0025V6.776Z" fill="#616D8D"/>
<defs>
<clipPath id="clip0_7677_422">
<rect width="16" height="16" fill="white" transform="translate(0 1)"/>
</clipPath>
</defs>
</svg>
